<svg xmlns="http://www.w3.org/2000/svg" width="171" height="36" viewBox="0 0 171 36" fill="none"><path d="M156.271 17.8412L148.684 6.68327H155.905L159.794 12.4854L163.763 6.68327H171L163.508 17.889L171 28.9991H163.907L159.746 23.2289L155.969 28.9991H148.684L156.271 17.8412Z" fill="#1D164A"></path><path d="M140.81 28.9991C137.728 28.9991 135.098 27.9099 132.92 25.7314C130.741 23.553 129.652 20.9229 129.652 17.8412C129.652 14.7595 130.741 12.1294 132.92 9.95095C135.098 7.7725 137.728 6.68327 140.81 6.68327C143.892 6.68327 146.522 7.7725 148.7 9.95095C150.879 12.1294 151.968 14.7595 151.968 17.8412C151.968 20.9229 150.879 23.553 148.7 25.7314C146.522 27.9099 143.892 28.9991 140.81 28.9991ZM140.81 22.6231C142.128 22.6231 143.254 22.1556 144.189 21.2204C145.124 20.2853 145.592 19.1589 145.592 17.8412C145.592 16.5235 145.124 15.3971 144.189 14.4619C143.254 13.5268 142.128 13.0592 140.81 13.0592C139.492 13.0592 138.366 13.5268 137.431 14.4619C136.496 15.3971 136.028 16.5235 136.028 17.8412C136.028 19.1589 136.496 20.2853 137.431 21.2204C138.366 22.1556 139.492 22.6231 140.81 22.6231Z" fill="#1D164A"></path><path d="M117.506 28.9991C114.424 28.9991 111.794 27.9099 109.616 25.7314C107.437 23.553 106.348 20.9229 106.348 17.8412C106.348 14.7595 107.437 12.1294 109.616 9.95095C111.794 7.7725 114.424 6.68327 117.506 6.68327C120.588 6.68327 123.218 7.7725 125.396 9.95095C127.574 12.1294 128.664 14.7595 128.664 17.8412C128.664 20.9229 127.574 23.553 125.396 25.7314C123.218 27.9099 120.588 28.9991 117.506 28.9991ZM117.506 22.6231C118.824 22.6231 119.95 22.1556 120.885 21.2204C121.82 20.2853 122.288 19.1589 122.288 17.8412C122.288 16.5235 121.82 15.3971 120.885 14.4619C119.95 13.5268 118.824 13.0592 117.506 13.0592C116.188 13.0592 115.062 13.5268 114.127 14.4619C113.191 15.3971 112.724 16.5235 112.724 17.8412C112.724 19.1589 113.191 20.2853 114.127 21.2204C115.062 22.1556 116.188 22.6231 117.506 22.6231Z" fill="#1D164A"></path><path d="M97.7563 22.6231C98.8189 22.6231 99.3503 22.0918 99.3503 21.0292C99.3503 19.9665 98.8189 19.4352 97.7563 19.4352H92.9743V22.6231H97.7563ZM96.1623 14.6532C97.225 14.6532 97.7563 14.2547 97.7563 13.4577C97.7563 12.6607 97.225 12.2622 96.1623 12.2622H92.9743V14.6532H96.1623ZM96.1623 6.68327C99.3503 6.68327 101.608 7.74593 102.937 9.87125C103.542 10.8383 103.845 11.8053 103.845 12.7723C103.845 13.9306 103.41 15.0889 102.538 16.2472C104.664 17.3098 105.726 18.9038 105.726 21.0292C105.726 26.3424 103.07 28.9991 97.7563 28.9991H86.5984V8.27726L85.0044 6.68327H96.1623Z" fill="#1D164A"></path><path d="M69.0007 6.68327H84.9406V13.0592H80.1586V35.375L73.7827 28.9991V13.0592H70.5947L69.0007 14.6532V6.68327Z" fill="#5C47DE"></path><path d="M67.2475 6.68327V28.9991H60.8716V8.27726L59.2776 6.68327H67.2475Z" fill="#5C47DE"></path><path d="M44.1027 6.68327V14.6532H52.0727V6.68327H58.4486V28.9991H52.0727V21.0292H44.1027V28.9991H37.7268V8.27726L36.1328 6.68327H44.1027Z" fill="#5C47DE"></path><g clip-path="url(#clip0_42_515)"><path d="M0.343164 35L5.50181 19.475L0 11.2575L8.9782 10.8793L13.969 0L20.6159 11.0541L32 10.7259L22.6563 20.0352L25.8529 30.9716L14.5807 25.6158L0.343164 35ZM7.92633 15.1896L10.3844 18.8613L8.52687 24.4525L14.4129 20.6917L18.9225 23.0681L17.6095 18.9112L21.2314 15.3002L17.2253 14.658L14.5024 9.43776L12.0853 15.0112L7.92633 15.1896Z" fill="#1D164A"></path><path d="M6.96765 19.2894L2.37598 12.435L9.86962 12.1174L14.1293 2.83311L19.8549 12.3565L28.766 12.0996L21.1642 19.6784L23.7566 28.5488L14.4688 24.135L2.8012 31.8279L6.96765 19.2894ZM6.09482 27.5426L14.48 22.1868L21.153 25.7014L19.1164 19.2573L23.9505 14.4403L18.1205 13.5055L14.3942 6.35844L11.1826 13.7731L5.54651 14.0121L8.91846 19.0468L6.09482 27.5426Z" fill="#5C47DE"></path></g><defs><clipPath id="clip0_42_515"><rect width="32" height="35" fill="white"></rect></clipPath></defs></svg>