<?xml version="1.0" encoding="UTF-8"?>
<svg xmlns="http://www.w3.org/2000/svg" width="127" height="38" viewBox="0 0 127 38" fill="none">
  <path d="M51.904 17.976C52.688 18.04 53.424 18.248 54.112 18.6C54.8 18.952 55.36 19.448 55.792 20.088C56.224 20.728 56.44 21.496 56.44 22.392C56.44 23.864 55.904 25 54.832 25.8C53.776 26.6 52.392 27 50.68 27H43.528V26.688L43.96 26.616C44.44 26.52 44.8 26.392 45.04 26.232C45.296 26.056 45.424 25.744 45.424 25.296V11.904C45.424 11.456 45.296 11.136 45.04 10.944C44.784 10.736 44.424 10.608 43.96 10.56L43.528 10.512V10.2H50.152C51.672 10.2 52.952 10.528 53.992 11.184C55.032 11.84 55.552 12.792 55.552 14.04C55.552 15.16 55.2 16.048 54.496 16.704C53.792 17.36 52.928 17.784 51.904 17.976ZM47.632 10.704V17.832H50.056C51.096 17.832 51.896 17.544 52.456 16.968C53.016 16.392 53.296 15.496 53.296 14.28C53.296 12.936 52.976 12.008 52.336 11.496C51.696 10.968 50.848 10.704 49.792 10.704H47.632ZM50.536 26.496C51.784 26.496 52.68 26.176 53.224 25.536C53.768 24.88 54.04 23.872 54.04 22.512C54.04 21.072 53.672 20.016 52.936 19.344C52.216 18.672 51.208 18.336 49.912 18.336H47.632V25.32C47.632 26.104 48.152 26.496 49.192 26.496H50.536ZM67.4712 23.76C66.9912 24.928 66.3672 25.808 65.5992 26.4C64.8472 26.992 64.0072 27.288 63.0792 27.288C62.1512 27.288 61.3192 27.048 60.5832 26.568C59.8472 26.088 59.2712 25.416 58.8552 24.552C58.4392 23.688 58.2312 22.704 58.2312 21.6C58.2312 20.384 58.4552 19.304 58.9032 18.36C59.3512 17.416 59.9432 16.688 60.6792 16.176C61.4152 15.648 62.1992 15.384 63.0312 15.384C63.9432 15.384 64.7112 15.592 65.3352 16.008C65.9752 16.408 66.4472 16.928 66.7512 17.568C67.0712 18.208 67.2312 18.888 67.2312 19.608L67.2072 20.136H60.0072V20.28C60.0072 22.04 60.3752 23.36 61.1112 24.24C61.8632 25.104 62.8152 25.536 63.9672 25.536C64.6712 25.536 65.2872 25.392 65.8152 25.104C66.3432 24.8 66.8312 24.312 67.2792 23.64L67.4712 23.76ZM62.8872 15.816C62.1512 15.816 61.5112 16.16 60.9672 16.848C60.4392 17.536 60.1272 18.472 60.0312 19.656H65.2872C65.2392 18.456 65.0152 17.52 64.6152 16.848C64.2152 16.16 63.6392 15.816 62.8872 15.816ZM78.1448 26.112C78.4328 26.112 78.6808 26.048 78.8888 25.92V26.136C78.6008 26.472 78.2728 26.728 77.9048 26.904C77.5528 27.064 77.2008 27.144 76.8488 27.144C76.3048 27.144 75.8968 26.984 75.6248 26.664C75.3688 26.328 75.2168 25.912 75.1688 25.416C74.7848 25.928 74.2888 26.352 73.6808 26.688C73.0888 27.024 72.4728 27.192 71.8328 27.192C70.9848 27.192 70.2728 26.904 69.6968 26.328C69.1368 25.752 68.8568 25.048 68.8568 24.216C68.8568 23.464 69.0968 22.88 69.5768 22.464C70.0728 22.048 70.9208 21.64 72.1208 21.24L75.1448 20.256V18.576C75.1448 17.584 74.9848 16.864 74.6648 16.416C74.3608 15.952 73.8728 15.72 73.2008 15.72C72.6888 15.72 72.3288 15.848 72.1208 16.104C71.9128 16.36 71.6888 16.864 71.4488 17.616C71.3368 17.968 71.2008 18.208 71.0408 18.336C70.8808 18.464 70.6728 18.528 70.4168 18.528C70.1288 18.528 69.8728 18.472 69.6488 18.36C69.4408 18.232 69.2808 18.072 69.1688 17.88C69.2808 17.48 69.5128 17.088 69.8648 16.704C70.2168 16.304 70.6808 15.984 71.2568 15.744C71.8488 15.488 72.5208 15.36 73.2728 15.36C74.6168 15.36 75.6008 15.656 76.2248 16.248C76.8648 16.84 77.1848 17.6 77.1848 18.528V24.864C77.1848 25.296 77.2568 25.616 77.4008 25.824C77.5448 26.016 77.7928 26.112 78.1448 26.112ZM73.0328 26.088C73.4648 26.088 73.8648 26 74.2328 25.824C74.6008 25.632 74.9048 25.384 75.1448 25.08V20.688L72.4328 21.624C71.7928 21.848 71.3528 22.104 71.1128 22.392C70.8888 22.664 70.7768 23.064 70.7768 23.592C70.7768 24.264 70.9688 24.848 71.3528 25.344C71.7528 25.84 72.3128 26.088 73.0328 26.088ZM89.2008 24.528C89.2008 25.152 89.2968 25.6 89.4888 25.872C89.6968 26.128 90.0968 26.296 90.6888 26.376V26.616L87.7608 27.168C87.5048 26.736 87.3288 26.12 87.2328 25.32C86.8968 25.848 86.4088 26.304 85.7688 26.688C85.1448 27.072 84.4488 27.264 83.6808 27.264C82.5768 27.264 81.7448 26.944 81.1848 26.304C80.6408 25.648 80.3688 24.752 80.3688 23.616V17.592C80.3688 17.176 80.2568 16.872 80.0328 16.68C79.8248 16.488 79.4408 16.368 78.8808 16.32V16.104L82.2888 15.408H82.4328V23.448C82.4328 24.312 82.6168 24.984 82.9848 25.464C83.3688 25.944 83.9528 26.184 84.7368 26.184C85.2488 26.184 85.7128 26.08 86.1288 25.872C86.5448 25.664 86.8968 25.376 87.1848 25.008C87.1528 24.432 87.1368 23.936 87.1368 23.52V17.592C87.1368 17.176 87.0248 16.872 86.8008 16.68C86.5928 16.488 86.2088 16.368 85.6488 16.32V16.104L89.0568 15.408H89.2008V24.528ZM95.2007 27.216C94.4487 27.216 93.8567 27 93.4247 26.568C92.9927 26.12 92.7767 25.48 92.7767 24.648V16.368H91.1207V16.104C91.9367 15.912 92.6327 15.52 93.2087 14.928C93.7847 14.336 94.2247 13.616 94.5287 12.768H94.8407V15.672H97.6247L97.4327 16.368H94.8407V24.12C94.8407 24.776 94.9687 25.256 95.2247 25.56C95.4967 25.864 95.9207 26.016 96.4967 26.016C97.0247 26.016 97.5127 25.888 97.9607 25.632V25.872C97.5447 26.32 97.0967 26.656 96.6167 26.88C96.1527 27.104 95.6807 27.216 95.2007 27.216ZM98.3988 26.736L98.8068 26.688C99.2068 26.64 99.4868 26.528 99.6468 26.352C99.8068 26.176 99.8868 25.856 99.8868 25.392V18.072C99.8868 17.592 99.7828 17.248 99.5748 17.04C99.3668 16.832 98.9748 16.696 98.3988 16.632V16.416L101.807 15.408H101.951V25.392C101.951 25.856 102.023 26.176 102.167 26.352C102.327 26.528 102.607 26.64 103.007 26.688L103.415 26.736V27H98.3988V26.736ZM100.823 13.8C100.471 13.8 100.167 13.68 99.9108 13.44C99.6708 13.184 99.5508 12.888 99.5508 12.552C99.5508 12.216 99.6708 11.928 99.9108 11.688C100.167 11.432 100.471 11.304 100.823 11.304C101.175 11.304 101.471 11.432 101.711 11.688C101.967 11.928 102.095 12.216 102.095 12.552C102.095 12.888 101.967 13.184 101.711 13.44C101.471 13.68 101.175 13.8 100.823 13.8ZM115.852 26.736V27H110.836V26.736L111.244 26.688C111.644 26.64 111.924 26.528 112.084 26.352C112.244 26.176 112.324 25.856 112.324 25.392V11.376C112.148 10.96 111.884 10.608 111.532 10.32C111.18 10.032 110.756 9.888 110.26 9.888C109.492 9.888 108.924 10.224 108.556 10.896C108.188 11.552 108.004 12.6 108.004 14.04V15.672H110.644L110.452 16.368H108.004V25.392C108.004 25.856 108.084 26.176 108.244 26.352C108.404 26.528 108.684 26.64 109.084 26.688L109.492 26.736V27H104.452V26.736L104.86 26.688C105.26 26.64 105.54 26.528 105.7 26.352C105.86 26.176 105.94 25.856 105.94 25.392V16.368H104.14V16.104L105.94 15.672V14.304C105.94 13.216 106.156 12.312 106.588 11.592C107.036 10.856 107.612 10.32 108.316 9.984C109.02 9.648 109.764 9.48 110.548 9.48C111.396 9.48 112.156 9.616 112.828 9.888L114.172 9.48H114.388V25.392C114.388 25.856 114.46 26.176 114.604 26.352C114.764 26.528 115.044 26.64 115.444 26.688L115.852 26.736ZM126.901 15.672V15.912C126.421 16.008 126.021 16.28 125.701 16.728C125.397 17.16 125.037 17.888 124.621 18.912L121.093 27.552C120.629 28.688 120.229 29.56 119.893 30.168C119.557 30.776 119.213 31.216 118.861 31.488C118.509 31.76 118.093 31.896 117.613 31.896C116.957 31.896 116.373 31.72 115.861 31.368C115.941 30.936 116.093 30.584 116.317 30.312C116.557 30.04 116.853 29.904 117.205 29.904C117.365 29.904 117.525 29.928 117.685 29.976C117.861 30.024 117.973 30.056 118.021 30.072C118.309 30.184 118.565 30.24 118.789 30.24C118.997 30.24 119.181 30.168 119.341 30.024C119.501 29.88 119.669 29.616 119.845 29.232C120.037 28.864 120.309 28.256 120.661 27.408L120.901 26.808L117.733 19.008C117.253 17.824 116.893 17.04 116.653 16.656C116.429 16.256 116.117 16.008 115.717 15.912V15.672H120.565V15.912L120.157 15.984C119.805 16.048 119.549 16.152 119.389 16.296C119.229 16.44 119.149 16.648 119.149 16.92C119.149 17.272 119.293 17.824 119.581 18.576L121.909 24.336L124.165 18.792C124.501 17.944 124.669 17.328 124.669 16.944C124.669 16.672 124.589 16.464 124.429 16.32C124.285 16.176 124.045 16.064 123.709 15.984L123.349 15.912V15.672H126.901Z" fill="#221D1A"></path>
  <g clip-path="url(#clip0_530_151)">
    <path d="M38 18.9827C38 8.52142 29.4786 0 18.9827 0C8.52142 0 0 8.52142 0 18.9827C0 29.4439 8.52142 37.9654 18.9827 37.9654C20.1604 37.9654 21.3382 37.8614 22.4467 37.6536H22.4813C26.1185 36.9608 29.3747 35.2634 31.9727 32.8387C32.0073 32.804 32.0766 32.7694 32.1112 32.7347C35.7138 29.2361 38 24.3865 38 18.9827ZM0.796718 18.9827C0.796718 8.97174 8.97174 0.796718 18.9827 0.796718C28.9936 0.796718 37.1686 8.97174 37.1686 18.9827C37.1686 24.1094 35.021 28.7511 31.6263 32.0419C27.608 31.6263 24.2133 29.0283 22.3081 24.8368C22.2735 24.7329 22.2388 24.629 22.1696 24.5597C21.8578 24.5251 21.546 24.4904 21.2343 24.4211C21.3382 24.6636 21.4421 24.9407 21.546 25.1832C23.4859 29.4093 26.8459 32.1112 30.8295 32.7694C28.5433 34.7438 25.7721 36.1294 22.7238 36.7876C22.516 35.7484 21.8232 33.0118 20.1951 31.7648C18.1513 30.206 16.2808 29.7557 14.0292 30.3099C11.639 30.8988 10.8423 30.6217 10.7384 30.4139C10.6345 30.206 10.5998 29.825 10.5305 29.4439C10.4613 28.8897 10.3573 28.3008 10.1149 27.9198C10.0109 27.7466 9.87238 27.608 9.76846 27.5041C9.59526 27.2963 9.52598 27.227 9.56062 27.1577C9.6299 26.8459 9.76846 26.6381 9.76846 26.6381C9.87238 26.4995 9.83774 26.2917 9.73382 26.1531C9.52598 25.9107 9.2835 25.5989 9.17958 25.4603C9.21422 25.3911 9.24886 25.2871 9.2835 25.2179C9.4567 24.8022 9.6299 24.3519 9.2835 24.1094C8.2443 23.382 7.65542 22.5852 7.69006 22.3774C7.7247 22.2735 8.0711 21.9964 8.27894 21.8232C8.90246 21.3036 9.66454 20.68 9.73382 19.7448C9.73382 19.5369 9.76846 19.3291 9.76846 19.0866C9.8031 17.8049 9.87238 16.0383 10.7037 14.5141C11.5351 13.0246 12.3318 12.1933 13.1285 11.3619C13.7521 10.7037 14.3409 10.0802 14.8952 9.21422C15.5187 8.2443 15.6919 7.30902 15.4148 6.61623C15.2762 6.26983 14.9644 5.78487 14.1677 5.57703C13.5789 5.40383 12.9207 5.50775 12.3318 5.85415C11.3965 6.40839 10.6691 7.51686 10.2881 8.97174C10.0456 9.94166 9.90702 10.9809 9.94166 12.0547C9.94166 12.6436 10.0109 13.2671 10.1149 13.856C10.0456 13.9599 10.0109 14.0292 9.94166 14.1331C9.00638 15.8304 8.9371 17.7703 8.90246 19.052C8.90246 19.2944 8.90246 19.5023 8.86782 19.7101C8.83318 20.299 8.20966 20.784 7.7247 21.1996C7.27438 21.5807 6.92799 21.8578 6.85871 22.2388C6.68551 23.1395 8.0711 24.2826 8.5907 24.6636C8.55606 24.7675 8.52142 24.8715 8.48678 24.9407C8.38286 25.2525 8.27894 25.4257 8.34822 25.6335C8.34822 25.7028 8.4175 25.876 8.9371 26.4995C8.86782 26.6381 8.79854 26.7767 8.7639 26.9845C8.62534 27.4348 8.90246 27.7812 9.14494 28.0583C9.24886 28.1623 9.31814 28.3008 9.42206 28.4394C9.56062 28.6472 9.6299 29.1668 9.69918 29.6171C9.76846 30.0328 9.8031 30.4485 9.94166 30.7603C10.2881 31.6263 11.6737 31.7302 14.1677 31.1413C16.1768 30.6563 17.7703 31.0374 19.6408 32.4576C21.0264 33.5314 21.65 36.0255 21.8578 36.9954C20.8879 37.1686 19.918 37.2379 18.9134 37.2379C8.97174 37.1686 0.796718 29.0283 0.796718 18.9827ZM10.8077 12.0201C10.773 11.0501 10.8769 10.0802 11.1194 9.17958C11.4312 7.93254 12.0201 6.99727 12.7821 6.58159C13.1978 6.33911 13.6135 6.26983 13.9945 6.37375C14.3409 6.47767 14.5834 6.65087 14.6873 6.92799C14.8605 7.3783 14.6873 8.03646 14.237 8.79854C13.7174 9.59526 13.1632 10.1841 12.5743 10.8077C12.0547 11.3619 11.4658 11.9854 10.8769 12.8168C10.8423 12.5397 10.8077 12.2972 10.8077 12.0201Z" fill="#BD7655"></path>
    <path d="M11.5351 15.6568C11.3965 15.3104 11.2926 14.9294 11.1887 14.5483C11.1541 14.583 11.1194 14.6523 11.1194 14.6869C10.9462 14.9987 10.8077 15.3104 10.7037 15.6568C10.7384 15.7261 10.773 15.83 10.8077 15.8993C11.8469 18.7051 13.8213 20.9914 16.4193 22.377C18.6709 23.5547 21.2689 24.2129 23.7976 24.2129C27.5041 24.2129 31.072 22.7926 33.0811 19.5019C35.0902 16.2457 34.7785 13.6477 34.155 12.0196C33.4622 10.1837 31.9727 8.65955 30.3792 8.1746C29.6518 7.96676 27.0884 7.37788 24.5597 8.83275C22.516 10.0452 21.1304 12.1928 20.4376 15.2758C19.9526 17.4927 19.9872 19.9175 20.6108 22.3077C20.68 22.5502 20.7493 22.8273 20.8186 23.0698C19.3291 22.758 17.9781 22.273 16.8004 21.6495C14.3409 20.4025 12.4704 18.2548 11.5351 15.6568ZM21.3382 22.1345C20.784 19.8829 20.7147 17.5967 21.165 15.4836C21.7885 12.6085 23.0702 10.634 24.9061 9.56019C27.1577 8.24388 29.4439 8.76347 30.0675 8.97131C31.1759 9.31771 32.6308 10.4608 33.3236 12.3314C33.8778 13.7863 34.155 16.1418 32.3191 19.1208C29.9289 23.0005 25.5643 23.8665 21.6153 23.2776C21.546 22.8966 21.4421 22.5155 21.3382 22.1345Z" fill="#BD7655"></path>
  </g>
  <defs>
    <clipPath>
      <rect width="38" height="38" fill="white"></rect>
    </clipPath>
  </defs>
</svg>
