<svg xmlns="http://www.w3.org/2000/svg" viewBox="0 0 185 50">
<style type="text/css">
	.wdt-cus-logo-01{fill:#87522E;}
</style>
<path class="wdt-cus-logo-01" d="M99,43.3c-1.3,0-2.1-0.3-2.6-1c-0.4-0.7-0.7-1.5-0.7-2.6c0-0.9,0.1-1.9,0.4-3.1c0.3-1.4,0.8-3.1,1.5-5
	c0.8-1.9,1.6-3.9,2.6-6c1-2.1,1.9-4.2,2.8-6.1c1-1.9,1.8-3.6,2.5-5c-0.4,0.4-0.9,0.8-1.3,1.2c-0.4,0.4-0.9,0.9-1.3,1.4
	c-1.9,2.1-3.6,4.2-5.1,6.1c-1.5,1.9-3,3.8-4.4,5.6c-1.4,1.8-2.8,3.7-4.3,5.6c-0.8,1.1-1.4,1.9-1.9,2.5c-0.4,0.5-0.9,0.9-1.3,1.1
	c-0.4,0.2-0.8,0.2-1.3,0.2c-0.8,0-1.7-0.2-2.7-0.7c0.4-0.6,0.8-1.8,0.9-3.6c0.2-1.8,0.3-3.9,0.3-6.3c0-2.4-0.1-4.9-0.2-7.4
	c-0.2-2.6-0.4-4.8-0.7-6.8c-0.2,0.3-0.5,1-1.1,2.2c-0.5,1.1-1.1,2.5-1.8,4.1c-0.7,1.6-1.4,3.4-2.2,5.3c-0.8,1.9-1.5,3.7-2.3,5.6
	c-0.7,1.9-1.3,3.6-1.9,5.3c-0.5,1.7-1,3.1-1.3,4.3c-0.3,1.2-0.4,2-0.3,2.5H67c0.7-1.8,1.5-3.9,2.4-6.1c0.9-2.3,1.9-4.6,2.9-6.9
	c1-2.4,2-4.6,2.9-6.9c1-2.2,1.9-4.3,2.7-6.1c0.8-1.9,1.5-3.4,2.1-4.6c0.5-1.2,0.9-2,1.1-2.3c-1.4,0-2.9,0.1-4.3,0.4
	c-1.5,0.3-2.9,0.7-4.1,1.3c-1.3,0.6-2.4,1.2-3.3,1.9c-0.9,0.7-1.4,1.5-1.7,2.3c0,0.1-0.1,0.1-0.2,0.1c-0.3,0-0.4-0.2-0.4-0.6
	c0-0.1,0-0.1,0-0.2c0-0.1,0.1-0.2,0.1-0.3c0.3-0.9,0.6-1.6,1.1-2.3c0.4-0.7,0.9-1.2,1.3-1.7c1.1-1.1,2.2-1.8,3.6-2
	c1.3-0.3,2.7-0.4,4.2-0.4h4.7c0.7,0,1.4,0,2.1,0s1.3,0.2,1.8,0.5c0.5,0.3,0.9,1,1,2c0.1,0.7,0.2,1.7,0.3,3.1
	c0.1,1.4,0.2,2.9,0.3,4.6c0.1,1.7,0.2,3.4,0.2,5.1c0.1,1.7,0.1,3.1,0.1,4.3c0,0.1,0,0.3,0,0.6c0,0.3,0,0.7,0,1.1c0,0.4,0,0.9,0,1.5
	c0,0.5,0,1-0.1,1.5c0.7-0.9,1.5-1.9,2.5-3.1c1-1.3,2.1-2.6,3.3-4.1c1.2-1.5,2.4-3,3.6-4.5c1.2-1.5,2.4-2.9,3.5-4.3
	c1.1-1.4,2.1-2.6,2.9-3.6c0.9-1,1.5-1.8,1.9-2.4c0.7-0.9,1.7-1.4,2.8-1.8c1.1-0.4,2.2-0.5,3.4-0.5h3c-0.7,0.5-1.4,1.4-2.2,2.6
	c-0.8,1.2-1.6,2.6-2.4,4c-0.7,1.4-1.4,2.7-2,3.9c-0.8,1.8-1.7,3.7-2.6,5.7c-0.9,2.1-1.6,4.1-2.3,6.1c-0.7,2-1.2,3.9-1.5,5.6
	c-0.1,0.5-0.1,1.1-0.1,1.7c0,0.7,0.1,1.4,0.3,1.9c0.3,0.5,0.7,0.8,1.3,0.8c0.5,0,1.1-0.2,1.9-0.6h0c0.1,0,0.1,0.1,0.1,0.2
	c0,0.1,0,0.2,0,0.2c-0.6,0.7-1.5,1.2-2.8,1.7C101.3,43.1,100.1,43.3,99,43.3z"/>
<path class="wdt-cus-logo-01" d="M109.6,43.2c-0.8,0-1.5-0.4-2.1-1.2c-0.5-0.8-0.7-2.1-0.6-3.8c0.1-0.7,0.2-1.6,0.5-2.7c0.3-1.1,0.6-2.3,1-3.6
	c0.4-1.3,0.9-2.6,1.5-3.8c0.5-1.2,1.1-2.3,1.8-3.3c0.4-0.5,0.7-0.8,1.1-0.9c0.4-0.1,1.1-0.2,2.1-0.2h2.3c-0.5,0.8-1.1,1.8-1.7,2.9
	c-0.6,1.2-1.2,2.4-1.7,3.5c-0.5,1.1-0.9,2.1-1.2,2.9c-0.1,0.2-0.2,0.6-0.4,1.2c-0.2,0.6-0.4,1.2-0.5,1.9c-0.2,0.7-0.2,1.3-0.2,1.9
	c0,0.5,0.1,1,0.3,1.3c0.2,0.4,0.5,0.5,1.1,0.5c0.6,0,1.3-0.4,2-1.2c0.7-0.8,1.4-1.7,2.1-2.9c0.7-1.2,1.4-2.4,2.1-3.7
	c0.7-1.3,1.3-2.5,1.9-3.6c0.6-1.1,1.1-2,1.4-2.6c0.5-0.8,1-1.4,1.5-2c0.5-0.6,1.2-0.9,1.9-0.9c0.3,0,0.6,0,1,0c0.4,0,0.9,0,1.3,0
	c0.5,0,0.8,0,0.9,0c-0.2,0.1-0.4,0.4-0.7,0.8c-0.3,0.4-0.5,0.8-0.8,1.2c-0.2,0.4-0.4,0.7-0.5,1c-0.8,1.7-1.7,3.4-2.5,5.2
	c-0.8,1.7-1.3,3.3-1.7,4.9c-0.2,0.6-0.2,1.1-0.2,1.5c0,1,0.3,1.5,1,1.5c0.5,0,1.1-0.3,1.9-1c0.6-0.5,1.3-1.2,1.9-2
	c0.7-0.9,1.3-1.8,1.9-2.7s1.1-1.9,1.5-2.7c0.1-0.2,0.2-0.3,0.3-0.3c0.2,0,0.3,0.3,0.3,0.8c0,0.3,0,0.6-0.1,0.9
	c-0.1,0.3-0.2,0.7-0.4,1c-0.5,0.8-1,1.7-1.6,2.6c-0.6,0.9-1.2,1.8-1.9,2.7c-0.4,0.6-1,1.3-1.8,2c-0.7,0.8-1.5,1.4-2.4,2
	c-0.8,0.6-1.6,0.8-2.4,0.8c-0.4,0-0.9-0.1-1.3-0.3c-0.4-0.2-0.7-0.5-1-1c-0.3-0.7-0.5-1.6-0.5-2.8c0-0.4,0-0.7,0-1.1
	c0-0.4,0.1-0.9,0.1-1.3c-0.5,0.7-1,1.3-1.5,1.9c-0.5,0.6-1,1.2-1.6,1.8c-1.2,1.2-2.3,2-3.1,2.4C111.1,43.1,110.4,43.2,109.6,43.2z"
	/>
<path class="wdt-cus-logo-01" d="M131.5,43.2c-0.9,0-1.6-0.3-2-1c-0.4-0.7-0.7-1.6-0.7-2.7c0-0.2,0-0.3,0-0.5c0-0.2,0-0.3,0-0.5
	c0.2-1.2,0.4-2.6,0.8-4.2c0.4-1.6,0.9-3.2,1.4-5c0.3-1,0.7-2.2,1.2-3.7c0.5-1.5,1.1-3.1,1.8-4.8c0.7-1.7,1.4-3.5,2.2-5.2
	c0.8-1.7,1.8-3.2,2.7-4.6c1-1.4,2-2.5,3.1-3.4c1.1-0.9,2.3-1.3,3.6-1.3c1,0,1.7,0.3,2.1,0.8c0.4,0.5,0.6,1.1,0.6,1.8
	c0,0.7-0.1,1.5-0.4,2.2c-0.3,0.7-0.5,1.3-0.8,1.8c-0.6,1.2-1.3,2.5-2.3,4c-0.9,1.5-1.9,2.8-2.9,4.1c-0.6,0.8-1.4,1.7-2.3,2.7
	c-0.9,1-1.8,1.9-2.6,2.8c-0.8,0.9-1.3,1.4-1.7,1.8l-0.8,2.3c-0.2,0.6-0.4,1.4-0.7,2.2c-0.2,0.9-0.4,1.7-0.5,2.6
	c-0.1,0.8-0.2,1.5-0.3,2.2c0,0.1,0,0.3,0,0.4c0,0.1,0,0.2,0,0.3c0,1,0.4,1.5,1.1,1.5c0.4,0,1-0.2,1.7-0.6c0.6-0.4,1.3-0.9,1.8-1.5
	c0.6-0.7,1-1.1,1.3-1.5c0.6-0.9,1.3-1.8,1.8-2.7c0.6-1,1.1-1.9,1.5-2.7c0.2-0.3,0.3-0.4,0.3-0.4c0.2,0,0.3,0.3,0.3,0.8
	c0,0.3,0,0.6-0.1,0.9c-0.1,0.3-0.2,0.6-0.3,0.9c-0.4,0.8-1,1.7-1.6,2.6s-1.2,1.9-1.9,2.7c-0.5,0.7-1.2,1.4-2,2.1
	c-0.9,0.8-1.8,1.4-2.8,1.9C133.3,43,132.4,43.2,131.5,43.2z M136.5,25.6c1.6-1.9,3.2-4,4.9-6.2c1.7-2.2,3.1-4.5,4.1-6.8
	c0.1-0.2,0.2-0.5,0.4-1c0.2-0.5,0.4-1,0.6-1.6c0.2-0.6,0.3-1.1,0.3-1.6c0-0.6-0.2-0.8-0.6-0.8h-0.3c-0.4,0-0.9,0.3-1.5,0.9
	c-0.5,0.6-1.1,1.4-1.7,2.4c-0.7,1.2-1.5,2.7-2.2,4.3c-0.7,1.6-1.4,3.3-2.1,5.1C137.8,22.1,137.2,23.9,136.5,25.6z"/>
<path class="wdt-cus-logo-01" d="M143.4,43.2c-0.9,0-1.6-0.3-2-1c-0.4-0.7-0.7-1.6-0.7-2.7c0-0.2,0-0.3,0-0.5c0-0.2,0-0.3,0-0.5
	c0.2-1.2,0.4-2.6,0.8-4.2c0.4-1.6,0.9-3.2,1.4-5c0.3-1,0.7-2.2,1.2-3.7c0.5-1.5,1.1-3.1,1.8-4.8c0.7-1.7,1.4-3.5,2.2-5.2
	c0.8-1.7,1.8-3.2,2.7-4.6c1-1.4,2-2.5,3.1-3.4c1.1-0.9,2.3-1.3,3.6-1.3c1,0,1.7,0.3,2.1,0.8c0.4,0.5,0.6,1.1,0.6,1.8
	c0,0.7-0.1,1.5-0.4,2.2c-0.3,0.7-0.5,1.3-0.8,1.8c-0.6,1.2-1.3,2.5-2.3,4c-0.9,1.5-1.9,2.8-2.9,4.1c-0.6,0.8-1.4,1.7-2.3,2.7
	c-0.9,1-1.8,1.9-2.6,2.8c-0.8,0.9-1.3,1.4-1.7,1.8l-0.8,2.3c-0.2,0.6-0.4,1.4-0.7,2.2c-0.2,0.9-0.4,1.7-0.5,2.6
	c-0.1,0.8-0.2,1.5-0.3,2.2c0,0.1,0,0.3,0,0.4c0,0.1,0,0.2,0,0.3c0,1,0.4,1.5,1.1,1.5c0.4,0,1-0.2,1.7-0.6c0.6-0.4,1.3-0.9,1.8-1.5
	c0.6-0.7,1-1.1,1.3-1.5c0.6-0.9,1.3-1.8,1.8-2.7c0.6-1,1.1-1.9,1.5-2.7c0.2-0.3,0.3-0.4,0.3-0.4c0.2,0,0.3,0.3,0.3,0.8
	c0,0.3,0,0.6-0.1,0.9c-0.1,0.3-0.2,0.6-0.3,0.9c-0.4,0.8-1,1.7-1.6,2.6c-0.6,0.9-1.2,1.9-1.9,2.7c-0.5,0.7-1.2,1.4-2,2.1
	c-0.9,0.8-1.8,1.4-2.8,1.9C145.2,43,144.3,43.2,143.4,43.2z M148.4,25.6c1.6-1.9,3.2-4,4.9-6.2c1.7-2.2,3.1-4.5,4.1-6.8
	c0.1-0.2,0.2-0.5,0.4-1c0.2-0.5,0.4-1,0.6-1.6c0.2-0.6,0.3-1.1,0.3-1.6c0-0.6-0.2-0.8-0.6-0.8h-0.3c-0.4,0-0.9,0.3-1.5,0.9
	c-0.5,0.6-1.1,1.4-1.7,2.4c-0.7,1.2-1.5,2.7-2.2,4.3c-0.7,1.6-1.4,3.3-2.1,5.1C149.7,22.1,149.1,23.9,148.4,25.6z"/>
<path class="wdt-cus-logo-01" d="M163.9,42.3c-1.5,0.8-3,1.2-4.7,1.2c-1.4,0-2.7-0.3-3.9-1c-1.2-0.7-2-1.8-2.4-3.3c-0.2-0.7-0.3-1.4-0.3-2.2
	c0-1.2,0.2-2.5,0.6-3.8c0.4-1.3,1-2.6,1.7-3.7c1.1-1.7,2.5-3.2,4.1-4.3c1.7-1.1,3.5-1.7,5.5-1.7c1.5,0,2.7,0.4,3.5,1.2
	c0.8,0.8,1.3,1.7,1.3,2.7c0,1.2-0.4,2.3-1.3,3.3c-0.8,0.9-1.9,1.6-3.2,2.1c-0.6,0.2-1.3,0.4-2.1,0.5c-0.7,0.1-1.4,0.1-2,0.1
	c-1.3,0-2.3-0.2-3-0.5c-0.6,1.6-0.9,3.1-0.9,4.4c0,1.2,0.3,2.2,0.8,3c0.5,0.8,1.4,1.1,2.6,1.1c1,0,2-0.3,2.9-0.8
	c1-0.6,1.9-1.2,2.7-2.1c0.9-0.8,1.6-1.6,2.2-2.4c0.4-0.6,0.8-1.1,1.2-1.6s0.7-1,1-1.7c0.4-0.7,0.8-1.5,1.3-2.4
	c0.1-0.2,0.2-0.3,0.3-0.3c0.2,0,0.3,0.3,0.3,0.8c0,0.3,0,0.6-0.1,1c-0.1,0.3-0.2,0.7-0.4,1c-0.4,0.8-1,1.7-1.6,2.7
	c-0.6,0.9-1.2,1.9-1.9,2.7c-0.6,0.8-1.2,1.5-2,2.2C165.6,41.2,164.8,41.8,163.9,42.3z M159.5,31.8c0.2,0.1,0.3,0.2,0.5,0.2
	c0.2,0,0.4,0,0.6,0c0.6,0,1.3-0.1,1.9-0.4c0.6-0.3,1.2-0.7,1.6-1c0.7-0.5,1.4-1.1,1.9-1.9c0.5-0.7,0.8-1.5,0.9-2.5
	c0-0.4-0.1-0.7-0.3-1c-0.2-0.3-0.5-0.4-1.1-0.4c-0.3,0-0.6,0-1,0.1c-0.5,0.1-1,0.4-1.5,0.7c-0.5,0.4-1,0.8-1.5,1.3
	c-0.2,0.2-0.4,0.5-0.9,1c-0.4,0.5-0.8,1-1.1,1.6c-0.4,0.6-0.5,1-0.5,1.5C159.1,31.4,159.3,31.7,159.5,31.8z"/>
<path class="wdt-cus-logo-01" d="M173.9,43.2c-0.9,0-1.6-0.4-2.1-1.1c-0.2-0.4-0.4-0.8-0.5-1.3c-0.1-0.5-0.1-1-0.1-1.5c0-0.5,0-1,0.1-1.6
	c0.1-0.6,0.1-1.1,0.2-1.6c0.2-0.9,0.3-1.6,0.5-2.3c0.2-0.7,0.4-1.4,0.7-2.1v0c-0.3,0.5-0.6,1-1,1.6c-0.4,0.6-0.7,1-0.8,1.2
	c-0.2,0.4-0.4,0.5-0.5,0.5c-0.1,0-0.2-0.1-0.2-0.4c0-0.7,0.2-1.4,0.6-2.2c0.3-0.5,0.6-1.2,1.1-2c0.5-0.9,0.9-1.8,1.4-2.7
	s0.9-1.9,1.3-2.8h-3.2c-0.2,0-0.2-0.1-0.1-0.4c0.1-0.3,0.2-0.5,0.4-0.7c0.2-0.3,0.3-0.4,0.4-0.4h3.7c0.4-0.9,0.8-1.8,1.2-2.7
	c0.5-1,1-1.9,1.6-2.7c0.6-0.9,1.3-1.6,2-2.2c0.7-0.6,1.5-0.8,2.3-0.8c0.4,0,0.8,0,1.3,0c0.5,0,0.9,0,1,0c-0.7,0.5-1.5,1.4-2.4,2.7
	c-0.9,1.3-1.9,3.3-2.9,5.8h4.9c0.1,0,0.1,0.1-0.1,0.4c-0.2,0.2-0.4,0.5-0.6,0.7c-0.2,0.3-0.4,0.4-0.7,0.4H179
	c-0.4,1.1-0.9,2.3-1.4,3.5c-0.5,1.3-0.9,2.5-1.3,3.8c-0.4,1.2-0.7,2.3-0.9,3.3c-0.1,0.6-0.2,1.2-0.2,1.7c0,1.2,0.4,1.9,1.2,1.9
	c0.5,0,1.1-0.3,1.8-0.8c0.7-0.5,1.4-1.2,2.1-2.2c0.6-0.9,1.3-1.8,1.8-2.7c0.6-1,1.1-1.9,1.5-2.7c0.1-0.2,0.2-0.3,0.3-0.3
	c0.2,0,0.3,0.3,0.3,0.8c0,0.3,0,0.6-0.1,0.9c-0.1,0.3-0.2,0.7-0.4,1c-0.5,0.8-1,1.7-1.6,2.6c-0.6,0.9-1.2,1.8-1.9,2.7
	c-0.4,0.6-1,1.3-1.8,2c-0.7,0.8-1.5,1.4-2.3,2C175.4,43,174.6,43.2,173.9,43.2z"/>
<path class="wdt-cus-logo-01" d="M18.9,28.5c-3.4,1.7-20.1-3.2-18.8,5.1C-0.9,26.6,15.5,31.3,18.9,28.5z"/>
<path class="wdt-cus-logo-01" d="M13.7,13.4c0,0,2.8,3,6.2,2.4c3.5-0.6,4.6-3,4.6-3S22,16,18.1,15.2C14.3,14.5,13.7,13.4,13.7,13.4z"/>
<path class="wdt-cus-logo-01" d="M51.4,44.2c-11.1-2.7-14.6,7.4-28.2-0.7C32.9,52,44.4,43.5,51.4,44.2z"/>
<path class="wdt-cus-logo-01" d="M61.4,43c-2,0.1-5.5,0.5-7.5,0.2c-1.7-0.3-3.5-1.2-4-2.6c-0.7-2,0.6-3.4,1-3.6c0.4-0.2,0.2-0.7,0.1-0.9
	c-0.2-0.1-0.9-0.5-1.2-0.7c-0.3-0.3-0.7-1.1,0.3-1.9c0,0,0.3-0.3,1-0.4c1.3-0.1-3.3-0.6-0.8-2.5c1.2-0.9,1.1-0.6,1.2-1.1
	c0.1-0.5,0.2-0.8,0-1.2c-0.2-0.4-2.9-1.8-3-2.6c-0.1-0.8,0-1.1,2.8-2.8c1.7-1.1,3.9-1.8,4.4-3.8c0.2-0.7,0.4-1.6,0.4-2.5
	c-1.6-0.8-3.1-2.1-3.1-2.1c1.2,0.9,2.3,1.4,3.1,1.7l0,0c-1.9-1-2.8-2.5-2.8-2.5c1.2,1.1,2.1,1.7,2.8,2.1c0.4-2.6,3.4-11.4,17.8-12.9
	C47.3-6.2,44,13,20.9,18.1c3.1,1.7,6,1,8.6,0.9c-2,0.9-2.9,3.1-15.5,5.5c7.2,5.5,14.1,4,19.6,1c-4.1,2.4-6.8,4.7-23.9,6.2
	c0,0,5.7,8.2,22.9,6.9c0,0-3.7,1.4-11.3,0.5C21.3,39,44.4,56.2,61.4,43"/>
<path class="wdt-cus-logo-01" d="M68,23.6c6.1,7,14,17.6,1.5,26c0,0,7.4-2.8,8-9.7c0.8-9.3-7.8-15.5-9.8-20.4C65.4,14,76.1,5.4,81.1,4.4
	C73.8,6.4,60.2,14.5,68,23.6"/>
</svg>
