<svg xmlns="http://www.w3.org/2000/svg" xmlns:xlink="http://www.w3.org/1999/xlink" x="0px" y="0px"
	 viewBox="0 0 190 70" xml:space="preserve">
<style type="text/css">
	.dark-logo-clr{fill:#000000;}
	.cl-1{fill:#A86318;}
	.cl-2{fill:#FFBD76;}
	.cl-3{fill:#E09A7A;}
	.cl-4{fill:#FFAD40;}
</style>
<path class="dark-logo-clr" d="M95,40.3c1.3-1.8,2.3-3.7,3.1-5.8h0.1c0.3,0,0.6,0.1,1,0.1h0.3c0.7,0,1.5,1.1,1.5,1.9c0,0.1,0,0.2,0,0.2
	c-0.1,0.5-0.3,0.9-0.5,1.3c-1.2,2.6-2.8,5-4.8,7c-0.6,0.7-1.3,1.2-2.1,1.7c-0.5,0.3-1,0.4-1.5,0.4c-0.7,0-1.4-0.2-2.2-0.6
	c-1.7-0.7-2.3-2-2.7-3.4c-0.2-0.9-0.4-1.9-0.5-2.8c-0.1-1.1-0.3-2.2-1.4-3.2c-0.2,0.2-0.5,0.5-0.7,0.9c-1.2,2.2-2.4,4.5-3.7,6.7
	c-0.5,1-1.2,1.8-1.8,2.8c-0.3,0.5-0.9,0.8-1.6,0.8c-0.6,0-1.2-0.2-1.7-0.6c-0.1,0-0.2-0.2-0.3-0.2c-1.2-0.2-1.5-1.2-1.6-2.2
	c0-0.5-0.1-1-0.1-1.5v-0.5c0.4-4.4,1.7-8.3,4.3-11.6c0.5-0.7,1.2-1.3,1.9-1.9c0.5-0.4,1.2-0.7,2-0.7c1.1,0,2.2,0.5,3.2,1.5
	c0.3,0.4,0.7,0.6,1.2,0.7c1,0.1,2.1,1.2,2.3,2.3c0.2,0.9,0.3,1.9,0.4,2.8c0.2,2.1,0.4,4.1,0.7,6.1c0.1,0.8,0.2,1.5,0.4,2.2
	c0.1,0,0.2,0.1,0.4,0.2C92.5,43.7,93.8,42.1,95,40.3L95,40.3z M77.5,43.5c1.9-3.4,3.8-6.8,5.7-10.1c0.1-0.2,0.2-0.5,0.2-0.7
	c0-0.3-0.1-0.7-0.3-1.1c-2.6,1.1-5.9,7.8-5.9,12.1V44C77.3,43.9,77.4,43.7,77.5,43.5L77.5,43.5z M87.9,41.7c0-0.1,0-0.2,0-0.4
	C87.8,41.5,87.9,41.6,87.9,41.7z"/>
<path class="dark-logo-clr" d="M186,2c0,0.3,0.6,0.5,1.1,0.9c-0.1,0.5-0.3,1.1-0.5,1.7c-1.4,3.3-2.8,6.7-4.1,10.1c-2,5.4-3.5,11-4.4,16.8
	c0,0.2,0,0.4,0,0.6c0,0.1,0,0.3,0,0.5c0.1-0.3,0.3-0.6,0.5-0.9c0.8-1.3,1.6-2.7,2.5-4c0.3-0.5,0.8-1,1.3-1.4
	c0.7-0.5,1.4-0.8,2.2-0.8c1.7,0,3.5,1.2,4.3,3.2c0.2,0.7,0.5,1.4,0.5,2.1c0.1,1.5,0.2,2.9,0.2,4.4c0,4.4-0.8,8.7-2.3,12.6
	c-0.6,1.6-1.5,2.9-2.7,4.1c-0.7,0.7-1.4,1-2.2,1c-0.7,0-1.5-0.2-2.4-0.6c-0.4-0.2-0.7-0.7-0.9-1.1c-0.2-0.5-0.6-0.8-1.1-1
	c-1.7-0.7-2.9-1.9-3.2-3.7c-0.4-1.7-0.5-3.3-0.5-5c0-0.7,0-1.4,0-2.1c0.2-7.1,1.5-13.9,3.4-20.5c0.2-0.9,0.3-2,0.5-2.9
	c0.5-1.7,1-3.4,1.7-5.1c1.2-3.1,2.6-6.2,4-9.2c0.1-0.3,0.3-0.7,0.6-1.1C185.2,1.1,185.9,1.1,186,2L186,2z M184.8,28.6
	c-0.8,1-1.6,1.9-2.2,2.9c-2.6,4.3-3.7,9.1-4.1,14.4v0.4c0,0.7,0,1.3,0.1,2.1c0.1,0.7,0.5,1.2,1,1.3c0.6,0.2,1.3,0.5,2.1,0.7
	c0.1-0.1,0.4-0.4,0.7-0.7c1.1-1.3,1.9-2.8,2.5-4.5c1.2-3.8,1.8-7.8,1.8-12c0-0.8,0-1.6,0-2.4c0-1-0.3-2-0.6-3.2
	C185.4,28.1,185,28.3,184.8,28.6L184.8,28.6z"/>
<path class="dark-logo-clr" d="M121.6,40.3c0,1.5,0.2,3,0.8,4.6c0.6-0.2,1.1-0.4,1.4-0.7c1.3-1,2.5-2,3.7-3.1c2.4-2.4,4.4-5.1,6.4-8
	c0.2-0.3,0.5-0.7,0.8-1c0.2-0.2,0.5-0.3,0.8-0.3c0.4,0,0.9,0.2,1.3,0.6c0.1,0.1,0.3,0.2,0.4,0.3c0.2,0.1,0.3,0.3,0.3,0.5
	c0,0.1,0,0.2-0.1,0.3c0,0.1-0.1,0.2-0.2,0.3c-2.3,3.4-4.7,6.8-7.7,9.6c-1,1-2.1,1.8-3.2,2.5c-0.8,0.5-1.5,0.8-2.2,0.8
	c-1.1,0-2.2-0.5-3.5-1.3c-0.9-0.6-1.2-1.6-1.4-2.6c-0.1-1-0.1-2.1-0.1-3.1c0-3.6,0.4-7,1.5-10.3c0.5-1.6,1.2-3.1,2.2-4.3
	c0.6-0.6,1.2-1.1,2-1.5c0.3-0.2,0.7-0.2,1-0.2c0.8,0,1.6,0.4,2.3,1.1c0.9,0.9,1.3,1.9,1.3,2.9c0,0.3,0,0.6-0.1,0.9
	c-0.5,2.6-1.4,5-3,7c-0.7,0.9-1.1,1.4-1.7,1.4c-0.5,0-1.1-0.3-2.1-0.8c-0.1-0.1-0.3-0.1-0.6-0.2C121.8,37.4,121.6,38.8,121.6,40.3
	L121.6,40.3z M124,33.4c1.1-2,2.2-4.1,2.7-6.5v-0.1c0-0.2,0-0.3,0-0.5c-1.8,0.6-4.2,5-4.2,7.5h0.8C123.5,33.8,123.8,33.7,124,33.4
	L124,33.4z"/>
<path class="dark-logo-clr" d="M136.5,24c-0.2,0-0.3-0.1-0.5-0.2c-0.2-0.2-0.5-0.4-0.7-0.5c-0.4-0.2-0.5-0.5-0.5-0.8c0-0.1,0-0.2,0-0.3
	c0.2-0.7,0.3-1.3,0.6-1.9c1.9-5.8,4.8-11.2,8.1-16.3c0.5-0.7,0.8-1,1.1-1c0.2,0,0.6,0.1,1.1,0.3c0.2,0,0.4,0.2,0.5,0.4
	c0.2,0.4,0.4,0.6,0.7,1c0.1,0.1,0.2,0.4,0.2,0.7c0,0.1,0,0.3,0,0.4c-0.1,0.8-0.4,1.5-0.6,2.2c-1.8,5.4-3.7,10.7-5.4,16.1
	c-1.7,5.6-3,11.4-3.8,17.3c0,0,0,0.1,0,0.2c0,0.1,0,0.2,0.1,0.4c0.1-0.3,0.3-0.7,0.5-1c0.8-1.4,1.6-2.9,2.4-4.4
	c0.3-0.6,0.9-1.1,1.6-1.2c0.2,0,0.4-0.1,0.6-0.1c1.3,0,2.6,1.1,3.1,2c0.3,0.6,0.5,1.3,0.8,2c0.3,1,0.7,1.9,1.1,2.8
	c0.3,0.6,0.7,1.1,1.1,1.9c0.5-0.4,1.1-0.7,1.4-1c1.9-1.8,3.6-3.8,4.7-6.2c0.2-0.5,0.5-0.8,1-0.8c0.1,0,0.3,0,0.4,0
	c0.5,0,0.8,0.3,1.1,1.1c0.2,0,0.4,0,0.6,0c0,0.1,0.1,0.3,0.1,0.4v0.1c-0.2,0.5-0.4,1.1-0.7,1.7c-1.2,2-2.6,3.8-4.4,5.4
	c-0.9,0.8-2,1.1-3.1,1.1c-1.7,0-3.4-0.8-4.4-2.3c-0.7-1-1.1-2.1-1.6-3.2c-0.2-0.5-0.4-1.1-0.7-1.9c-0.3,0.4-0.6,0.7-0.7,1
	c-1.1,2.2-2.2,4.3-3.2,6.5c-0.6,1.2-1.1,2.5-1.7,3.8c-0.4,0.9-0.8,1.2-1.5,1.2c-0.3,0-0.6,0-1-0.2c-1.2-0.4-1.6-0.7-1.6-1.9v-0.2
	c0-2.3,0.2-4.6,0.5-6.9c0.7-5.5,1.9-10.9,3.4-16.2c0-0.3,0.1-0.5,0.1-0.8c0-0.3-0.1-0.5-0.4-0.8C136.9,23.9,136.7,24,136.5,24
	L136.5,24z"/>
<path class="dark-logo-clr" d="M100.5,47.4c0,0.7,0,1.3,0.1,2c0,0.2,0.2,0.5,0.4,0.5c0.5,0.2,0.7,0.6,0.9,1.1c-0.4,0.5-0.6,0.7-0.9,0.7
	c-0.1,0-0.3,0-0.6-0.1c-0.2-0.1-0.5-0.1-0.7-0.2c-1.6-0.4-2-0.8-2-2.5c0-2.4,0.1-4.8,0.3-7.2c0.8-7.9,2.4-15.7,4.5-23.4
	c0-0.3,0.1-0.5,0.2-1c-0.2-0.1-0.5-0.2-0.7-0.5c-0.2-0.3-0.3-0.6-0.3-0.9c0-0.2,0-0.3,0.1-0.5c0.8-2.2,1.5-4.6,2.3-6.9
	c0.7-1.9,1.4-3.7,2.2-5.5c0.1-0.3,0.3-0.7,0.5-1c0.7,0.3,1.3,0.4,1.9,0.8c0.4,0.3,0.6,0.8,0.6,1.3c0,0.1,0,0.3,0,0.4
	c-0.1,0.7-0.2,1.4-0.4,2.1c-1.4,5.3-3,10.6-4.4,15.9c-0.9,3.2-1.5,6.5-2.2,9.7v0.2c0,0.1,0,0.2,0.1,0.4c0.2-0.3,0.4-0.5,0.7-0.8
	c2.2-2.8,4.6-5.5,7.3-7.7c0.7-0.6,1.4-1.1,2.1-1.6c0.4-0.3,0.8-0.4,1.2-0.4c0.4,0,0.7,0.1,1.1,0.3c0.7,0.4,1.2,1.1,1.2,2v0.2
	c-0.1,0.5-0.3,1-0.5,1.7c-0.6-0.3-1.1-0.6-1.7-0.9c-0.1,0.1-0.4,0.3-0.6,0.4c-4.1,3.4-7.6,7.3-10.3,11.9c-0.6,1-1.1,2-1.5,3.1
	c-0.2,0.6-0.3,1.2-0.3,1.9v0.2c0,0.7,0.2,1,1,1h0.2c1,0,2-0.2,2.9-0.5c2.8-1,5.4-2.3,7.8-4c1.9-1.2,3.6-2.6,5.4-4
	c0.4-0.3,0.8-0.5,1.2-0.5c0.3,0,0.5,0.1,0.7,0.2c0.5,0.3,1.1,0.8,1.1,1.9c0,0-0.3,0.1-0.6,0.3c-3.4,2.8-7,5.3-11,7.2
	c-1.1,0.5-2.2,0.9-3.4,1.3c-0.7,0.2-1.5,0.4-2.2,0.4c-0.9,0-1.8-0.2-2.7-0.7c-0.2-0.1-0.4-0.1-0.8-0.3
	C100.6,46,100.5,46.7,100.5,47.4L100.5,47.4z"/>
<path class="dark-logo-clr" d="M173.6,38.4c0.3-0.1,0.7-0.2,1-0.2c0.6,0,1.1,0.2,1.5,0.7c0.2,0.2,0.3,0.4,0.3,0.7c0,0.1,0,0.2,0,0.3
	c-0.8,2.3-2.2,4.1-4.6,4.8c-0.3,0.1-0.7,0.1-1.1,0.1c-1.8,0-3.8-1.1-4.5-2.7c-0.4-0.7-0.6-1.5-1-2.4c-0.2,0.3-0.3,0.5-0.4,0.8
	c-0.7,1.9-1.4,3.8-2.2,5.6c-0.3,0.7-0.7,1.4-1.1,2.1c-0.3,0.5-0.7,0.8-1.3,0.8c-0.1,0-0.2,0-0.4,0c-1.7-0.2-3-1.1-3.3-2.8
	c-0.3-1.5-0.6-3-0.6-4.4v-1c0-1.9,0.1-3.9,0.1-5.8c0-0.3,0.1-0.5,0.2-0.8c0.3-0.1,0.7-0.2,1-0.2c1.1,0,2,0.7,2.2,1.9
	c0.1,0.5,0.1,1,0.1,1.4c0,0.1,0,0.5-0.1,0.5c-0.5,0.1-0.6,0.4-0.6,0.8c0,0.2,0,0.4,0,0.6c0,1.9,0.1,3.9,0.2,5.8c0,0.2,0,0.4,0.2,0.6
	c0.2-0.3,0.4-0.7,0.5-1c1.3-3.4,2.6-6.8,3.9-10.2l0.4-1.1c0.3-0.6,0.7-0.9,1.2-0.9c0.2,0,0.4,0,0.7,0.1c1.1,0.4,1.6,1,1.7,2.2
	c0.2,1.9,0.3,3.9,0.6,5.8c0.1,0.9,0.4,1.8,1.1,2.6C171.5,42.2,172.8,40.6,173.6,38.4L173.6,38.4z"/>
<path class="dark-logo-clr" d="M70.9,50.7c1.6,0.2,4.6-5,6.5-10.2l-5.8,6.3c-2,2.4-2.8,0.2-2.9-1.2c-0.1-1.3-0.5-3,0.8-8.7
	c1.3-5.8,2.3-7.2,2.8-10c0.5-2.8-0.6-3.6-2.3-4.3c-1.8-0.7-3.1,0.4-5.2,2.3c-2.1,1.9-5.2,7.9-5.7,8.7c-0.5,0.8-0.4,0.2-0.4,0.2
	s0.6-3.5,0.7-5.2c0.1-1.7-0.7-2.7-2.5-2.9c-1.8-0.1-3.6,2.3-4.9,4.1c-1.4,1.8-3.6,7-3.6,7s0-1.5,0-2.8c0-1.3-0.1-0.9,0.1-1.7
	c0.1-0.8,0.2-1.4,0-1.7c-0.1-0.2-0.5-0.8-1-1.3c-0.1-0.2-0.2-0.3-0.4-0.4c-0.1,0-0.2-0.1-0.3-0.1c-0.4-0.2-0.9-0.2-1.2-0.2
	c-0.1,0-0.2,0-0.4,0c0,0-0.1,0-0.1,0C33.9,28.4,5,55.6,2.5,46.4c-0.2-0.9,0-1.8,0.3-2.6c0.2-0.5-0.1-1.1-0.6-1.3
	c-0.5-0.2-1.1,0.1-1.3,0.6c-0.4,1.3-0.7,2.4-0.3,3.8C4.2,60,35,30.1,45,30.4c-0.1,0.4-0.1,0.9-0.2,1.5c-0.4,2.2-0.4,8.4-0.4,10.2
	c0.1,1.7,1.4,1.5,2.2,1.8c0.8,0.3,1.5-0.1,3-4.5c1.5-4.4,3.1-7.9,3.6-8.8c0.5-0.9,2.8-3.6,3-3.2c0.2,0.5-0.3,4-1.7,8.1
	c-1.4,4.1-0.2,6.8,0.8,7.8c1.1,0.9,2.2-1,2.2-1s0.7-1.1,2.2-5c1.5-3.9,4.3-8.8,5.3-10.2c1-1.4,3-2.8,3.3-2.5
	c0.2,0.3-1.2,4.3-1.2,4.3s-1.8,4.6-2.4,11.9c-0.6,7.3,3.5,8.7,3.5,8.7S69.1,50.4,70.9,50.7z"/>
<path class="cl-1" d="M66.2,67c0.3,0,0.5,0,0.7,0c0.4,0,0.9,0,1.2-0.2c-0.6,0-1.1,0-1.5,0C66.4,66.9,66.3,67,66.2,67z"/>
<path class="st2" d="M12.6,27.8C12.6,27.8,12.6,27.8,12.6,27.8c-0.2-0.2-0.4-0.5-0.6-0.8v0.1c0.1,0.1,0.2,0.3,0.3,0.4
	C12.4,27.6,12.5,27.7,12.6,27.8z"/>
<path class="st2" d="M103.6,54.1c0.2-0.1,0.3-0.2,0.5-0.3c0,0,0-0.1,0-0.1c-0.1,0-0.1,0.1-0.2,0.1C103.9,53.9,103.7,54,103.6,54.1
	L103.6,54.1z"/>
<path class="cl-1" d="M68.6,66.3c0-0.3-0.3-0.4-0.7-0.4c-0.4,0.3-0.8,0.6-1.4,1c0.4,0,1,0,1.5,0C68.4,66.8,68.6,66.6,68.6,66.3
	L68.6,66.3z"/>
<path class="dark-logo-clr" d="M9.7,23.8c0.7,1.1,1.5,2.2,2.3,3.2l0.2-1.2C11.3,25.2,10.5,24.5,9.7,23.8L9.7,23.8z"/>
<path class="dark-logo-clr" d="M9.4,24.3c0.2,0.6,0.4,1.3,0.6,1.9c0.2,0.5,0.3,1,0.5,1.5c0.3,0.8,0.6,1.6,1,2.4l0.5-3.1
	C11.2,26.1,10.4,25.1,9.4,24.3L9.4,24.3z"/>
<path class="dark-logo-clr" d="M104.3,53.7c0,0-0.1,0-0.1,0.1c0,0,0,0,0,0C104.2,53.8,104.2,53.8,104.3,53.7z"/>
<path class="dark-logo-clr" d="M61.5,63.4c0.1-0.4,0.2-0.9,0.3-1.4c0.3-2.3,0.3-6.2,0.3-10.8c-0.3-0.1-0.6-0.2-0.9-0.2
	c-0.7-0.2-1.4-0.3-2.1-0.4l1.2,8.1C60.7,60.8,61,62.4,61.5,63.4L61.5,63.4z"/>
<path class="dark-logo-clr" d="M40,42.5c-2.2-1.3-4.7-2.1-7-3.2c-2.8-1.3-5.4-3.2-7.7-5.4c-0.1,0.4-0.1,0.8-0.2,1.1c0-0.1,0-0.2,0-0.2
	c-0.1-1.1-1-1.8-2-2.3L34,55.1L40,42.5L40,42.5z"/>
<path class="dark-logo-clr" d="M57.8,67c-0.5,0-0.9-0.1-1.1-0.2c-1.3,0-2.4-0.1-3.1-0.1c-1.5-0.1-1.9-0.3-1.9-0.7c0-0.3,0.3-0.5,0.7-0.7
	c0.4-0.1,0.6-1,0.3-2.8l-2-15.1c-0.3-0.1-0.6-0.3-0.8-0.4c-2-1-4.1-1.7-5.9-2.9c-0.1,0-0.1-0.1-0.2-0.1L36,60
	c1.1,0.6,2.3,1.1,3.6,1.3c1.6,0.3,0.8,0.3,2.5,0.1c-1.9,0.9-1.6,0.1-3.6,0.8c3.1,2.4,6.5,3.8,10.3,2.9c-1.5,0.2-2.3,0.6-3.4,1.8
	c3.3-0.8,6.9,0.8,10.3,0.1c-1.1,0.6-2.1,1.4-3.1,2.2c2.3-0.5,4.5-0.8,6.9-0.8c1.3,0,2.4-0.3,3.7-0.4c1.1,0,2.2-0.5,3.1-1
	c-0.9,0-2.5,0-4.2-0.1C60.6,67,59,67,57.8,67L57.8,67z"/>
<path class="dark-logo-clr" d="M110.9,46.9c-0.8,1-1.7,2-2.7,2.9c-0.7,0.7-1.5,1.3-2.3,1.9c-0.6,0.4-1.2,0.8-1.8,1.2c0,0.3,0,0.6,0,0.8
	c2.7-1.9,5.4-3.8,7.3-6.4c0.1-0.2,0.3-0.6,0-0.7C111.2,46.5,111,46.7,110.9,46.9z"/>
<path class="dark-logo-clr" d="M83.5,59.7c-0.2,0-0.4,0-0.6,0c-0.2,0-0.5,0.1-0.7,0.2c-0.7,0.2-1.4,0.3-2.2,0.4c-0.3,0-0.5,0-0.8,0
	c-2.3-0.1-5.6-0.9-7.6-2.1c-0.5-0.3-0.9-0.6-1.4-0.9c0,1.9,0.1,3.5,0.3,4.7c0.1,0.8,0.2,1.6,0.5,2.2c0.3,0,0.6,0,0.8,0
	c0.6,0,0.8-0.8,0.8-0.8c0.8-0.4,1.5-0.7,2.3-0.9c0,0,4.9-2.2,4.3-2.1c-0.1,0-0.2,0-0.4,0c0.7,0,1.5-0.1,2.3-0.1c0.8,0,1.6,0,2.4,0
	c0.4,0,0.9,0,1.3,0l0.2,0c3.3,0,6.6-0.5,9.6-1.7c0.4-0.2,0.8-0.3,1.2-0.5c0-0.3,0-0.7,0-1C92,58.5,87.8,59.5,83.5,59.7L83.5,59.7z"
	/>
<path class="dark-logo-clr" d="M15.2,34.4l-0.3,2.1c0.8,1.9,1.3,3.8,2.6,5.4c0.2,0.3,0.5,0.6,0.9,0.6c-0.4,0.1-0.8,0.2-1.3,0.3
	c0.8,0.4,1.7,0.9,2.5,1.2c-0.5,0.1-1,0.2-1.5,0.3c1.2,1,2.3,2,3.3,3.1c-1.4-2.9-4.3-9-6.1-13H15.2L15.2,34.4z"/>
<path class="dark-logo-clr" d="M66,66.8c-0.8,0-2.3,0.1-4,0.1c1.7,0,3.3,0.1,4.2,0.1c0.1-0.1,0.2-0.1,0.3-0.2C66.4,66.8,66.2,66.8,66,66.8
	L66,66.8z"/>
<path class="dark-logo-clr" d="M54.8,51.3c-0.7-1.8-2.3-3-4-3.9l2,15.1c0.3,1.8,0.1,2.7-0.3,2.8c-0.5,0.2-0.7,0.4-0.7,0.7
	c0,0.4,0.4,0.6,1.9,0.7c0.7,0,1.8,0.1,3.1,0.1c-0.1-0.1-0.2-0.2-0.2-0.4c0-0.3,0.3-0.5,1-0.5c1,0,1.8-0.1,2.4-0.3
	c0.9-0.2,1.4-1,1.6-2.2c-0.5-1.1-0.9-2.6-1.2-4.8l-1.2-8.1c-1.5-0.3-3.1-0.6-4.5-1.2C54.4,49.9,54.5,50.7,54.8,51.3L54.8,51.3z"/>
<path class="dark-logo-clr" d="M41.9,43.1c0.1,0.4,0.2,0.8,0.3,1.3c-0.4-0.7-1.1-1.2-1.7-1.6c-0.2-0.1-0.3-0.2-0.5-0.3l-6,12.6L23.1,32.6
	c-0.9-0.4-1.9-0.7-2.6-1.2c-2.9-1.6-5.7-3.4-8.3-5.5L12,27c0.2,0.3,0.4,0.5,0.6,0.8c0,0,0,0,0,0c-0.1-0.1-0.2-0.2-0.3-0.3
	c-0.1-0.1-0.2-0.3-0.3-0.4l-0.5,3.1c0.3,0.6,0.6,1.3,1,1.9c0.3,0.5,0.5,1,0.8,1.5c0.3,0.4,0.6,0.9,0.8,1.3c0.3,0.5,0.6,1,0.8,1.6
	l0.3-2.1h0.3c1.8,3.9,4.7,10.1,6.1,13c1.1,1.1,2.1,2.1,3.1,3.3c1.5,1.7,2.9,3.5,4.7,5c1.7,1.5,3.9,2.7,6.2,3
	c-0.6,0.1-1.1,0.2-1.7,0.2c0.7,0.4,1.5,0.8,2.2,1.2l7.8-16.2C43.2,43.5,42.5,43.4,41.9,43.1L41.9,43.1z M25.7,42.3
	C25.7,42.3,25.7,42.3,25.7,42.3L25.7,42.3z"/>
<path class="dark-logo-clr" d="M95.9,57c0,0.3,0,0.7,0,1c0.2-0.1,0.3-0.1,0.5-0.2c0.7-0.3,1.3-0.5,2-0.7c2.1-0.8,3.9-2.1,5.8-3.3c0,0,0,0,0,0
	c-0.2,0.1-0.3,0.2-0.5,0.3c0.1-0.1,0.2-0.2,0.3-0.2c0.1,0,0.1-0.1,0.2-0.1c0-0.3,0-0.6,0-0.8C101.6,54.5,98.8,55.9,95.9,57L95.9,57z
	"/>
<path class="dark-logo-clr" d="M57.8,67c1.2,0,2.8,0,4.2-0.1c-1.8,0-3.7-0.1-5.3-0.2C56.9,66.9,57.3,67,57.8,67z"/>
<path class="dark-logo-clr" d="M70.3,57.4C70.3,57.4,70.3,57.3,70.3,57.4c-0.3-0.2-0.6-0.3-0.8-0.4c-0.2-0.2-0.4-0.4-0.6-0.7
	c-0.7-1-1.4-2-2.1-3c0,0.3,0,0.7,0,1c-1.1-1.7-2.9-2.6-4.8-3.1c0,4.7-0.1,8.6-0.3,10.8c-0.1,0.5-0.1,1-0.3,1.4
	c0.5,0.9,1.1,1.5,2,1.8c1.9,0.6,3.2,0.6,4,0.6c0.1,0,0.2,0,0.3,0c0.5-0.4,0.8-0.7,0.8-0.7l0.3,1.4l0.6-1.2c0.4-0.8,1-1,1.6-1.1
	c-0.3-0.6-0.4-1.3-0.5-2.2C70.5,60.9,70.4,59.3,70.3,57.4L70.3,57.4z"/>
<path class="dark-logo-clr" d="M59.9,65.6c-0.6,0.1-1.4,0.3-2.4,0.3c-0.8,0-1,0.2-1,0.5c0,0.2,0.1,0.3,0.2,0.4c1.6,0.1,3.5,0.1,5.3,0.2
	c1.7,0,3.2-0.1,4-0.1c0.1,0,0.3,0,0.5,0c0.5-0.3,1-0.7,1.4-1c-0.1,0-0.2,0-0.3,0c-0.8,0-2.2-0.1-4-0.6c-0.9-0.3-1.5-0.8-2-1.8
	C61.3,64.6,60.8,65.4,59.9,65.6L59.9,65.6z"/>
<path class="dark-logo-clr" d="M114,43.5c-0.1-0.2-0.4-0.3-0.6-0.2c-0.4,0.2-0.6,0.7-0.9,1c-0.2,0.3-0.9,1-0.7,1.4c0.1,0.1,0.2,0.2,0.3,0.2
	c0.1,0,0.3-0.1,0.4-0.1c0.4-0.3,0.7-0.7,1-1.1c0.2-0.2,0.3-0.5,0.4-0.7C114,43.7,114,43.6,114,43.5L114,43.5z"/>
<path class="cl-3" d="M17,39.3c0.8,1.3,1.7,2.7,3.1,3.2c-0.4,0.2-0.8,0.3-1.2,0.5c0.8,0.5,1.8,0.9,2.7,1.1c-0.6,0.2-1.2,0.4-1.8,0.4
	c2.1,2.3,4.1,4.5,6.2,6.8c1.9,2,3.8,4.1,6.2,5.4c2.4,1.3,5.5,1.8,7.9,0.6c-1.3,0.6-2.8,1.2-4.2,1.6c1.6,0.9,3.4,1.9,5.3,2
	c1.2,0,2.4-0.3,3.6-0.5c1.5-0.3,3.1-0.3,4.7-0.2c-2.8,1.4-5.9,2.1-9.1,2.2c1.5,0.9,3.1,1.7,4.8,2c4.1,0.8,8.2-1,12-2.8
	c-1,0.9-1.9,1.8-3.1,2.3c-2.1,1.1-4.7,1.1-6.8,2.3c2.5-0.2,5.1-0.2,7.6,0.1c1.5,0.2,3.2,0.4,4.5-0.4c-1.5,1-3.1,1.8-4.8,2.4
	c1.9-0.8,4.1-0.8,6.2-0.9c2.1-0.1,4.3-0.3,6-1.5c0,0,0.1-0.1,0.1-0.1c0.1-0.1,0.2-0.1,0.3-0.2c0.3-0.2,2-1.4,1.9-1.8
	c0.1,0.3,0.1,0.6,0.2,0.9c0.3-0.6,0.9-0.9,1.5-1.1c0.6-0.1,1.4,0.1,1.9-0.2c0.8-0.4,1.5-0.7,2.3-0.9c-1,0-2-0.1-3-0.2
	c-5-0.1-32.2-2-52.2-24.2c-4.2-4.4-6-7.7-6-7.7c1.9,2.8,3.9,5.3,6,7.7c7.7,8.1,23.4,19.9,50.3,22.2c0,0,0.5,0,1,0.2
	c1.3,0.1,2.9,0.2,4.9,0.1c0,0,0,0,0,0c0,0,0.1,0,0.1,0c0.1,0,0.2,0,0.3,0c0.7,0,1.5-0.1,2.4-0.1c0.8,0,1.6-0.1,2.5-0.1
	c0.1,0,0.2,0,0.4,0c1.3,0,2.6-0.1,2.9-0.2l-3.7,0.2c-0.1,0-0.2,0-0.3,0c-1.4,0-2.6,0-3,0c-0.2,0-0.4,0-0.6,0l-0.5-0.1
	c-0.4,0-0.8,0-1.2,0c-0.7-0.1-1.3-0.2-1.8-0.2c-0.6-0.1-1.2-0.2-1.7-0.4c-0.2-0.1-0.5-0.1-0.7-0.3c-0.5-0.3-0.7-0.9-1.2-1.1
	c-0.3-0.2-0.7-0.2-1.1-0.2c-0.3-1-0.8-1.9-1.5-2.7c0,0.5-0.1,1-0.2,1.5c-0.4-2.3-2.8-3.7-5-4.2c-2.3-0.5-4.7-0.5-6.7-1.5
	c0.1,1.4,0.3,2.8,0.4,4.2c-0.9-2-1.9-4-3.5-5.5c-1.2-1.1-2.8-1.8-4.3-2.4c-1.7-0.7-3.4-1.5-5-2.2c0.4,2.3,0.6,4.7,0.7,7.1
	c-0.3-2.8-0.7-5.7-2.5-7.8c-2.1-2.3-5.5-2.9-8.3-4.1c-2.7-1.2-4.9-3.1-7.2-4.9c-0.1,2.3,0,4.5,0.2,6.8c-0.3-1.9-0.7-3.7-1.1-5.6
	c-0.1-0.6-0.3-1.3-0.7-1.8c-0.3-0.4-0.8-0.6-1.2-0.8c-4.5-2.3-9.3-4.6-12.3-8.8C12.2,30.2,14.4,34.9,17,39.3L17,39.3z"/>
<path class="cl-3" d="M111.4,46.6c-0.2-0.1-0.4,0.1-0.5,0.3c-0.8,1-1.7,2-2.7,2.9c-0.7,0.7-1.5,1.3-2.3,1.9
	c-6.5,4.8-14.4,7.6-22.4,8.1c-0.2,0-0.4,0-0.6,0c-0.2,0-0.5,0.1-0.7,0.2c-0.8,0.2-1.6,0.3-2.4,0.4l1.2,0c0.8,0,1.6,0,2.5,0
	c1.3,0,2.6,0,3.8-0.2c1.8-0.2,3.5-0.8,5.1-1.3c3.5-1.2,7-2.6,10.4-4.1c0.4-0.3,0.7-0.5,1.1-0.8c2.7-1.9,5.5-3.8,7.4-6.5
	C111.6,47.1,111.7,46.7,111.4,46.6L111.4,46.6z"/>
<path class="cl-3" d="M79.9,60.3l-2.9,0C77.9,60.5,78.9,60.4,79.9,60.3z"/>
<path class="cl-3" d="M111.8,45.6c0.1,0.1,0.2,0.2,0.3,0.2c0.1,0,0.3-0.1,0.4-0.1c0.4-0.3,0.7-0.7,1-1.1c0.2-0.2,0.3-0.5,0.4-0.7
	c0-0.1,0-0.2,0-0.3c-0.1-0.2-0.4-0.3-0.6-0.2c-0.4,0.2-0.6,0.7-0.9,1C112.2,44.5,111.6,45.2,111.8,45.6L111.8,45.6z"/>
<path class="cl-4" d="M14.3,29.9c2.4,1.7,5.2,2.8,7.2,4.8c2.2,2.2,3.3,5.4,4,8.5c0.6-1.5,0.9-3,0.9-4.6c1.6,0.8,3.2,1.6,4.8,2.4
	c2.1,1.1,4.2,2.1,6.1,3.4c0.6,0.4,1.1,0.8,1.6,1.2c2.3,1.9,4,4.4,4.9,7.2c0.1-1.6,0.1-3.1,0.2-4.7c0.4-0.2,0.7-0.5,1.1-0.7
	c1.6,0.9,3.1,1.9,4.7,2.8c2.7,1.6,5.6,3.4,6.4,6.4c-0.1-1.1-0.1-2.2-0.2-3.3c1.1,1,2.7,1,4.1,1.2c1.4,0.2,3.1,1.1,3.1,2.5
	c0.4-0.3,0.8-0.6,1.3-0.9c2.1,1.7,4.4,3.5,7,3.7c0.6,0,1.1,0,1.7,0c-0.6-0.1-1.1-0.2-1.6-0.4c-0.2-0.1-0.5-0.1-0.7-0.3
	c-0.5-0.3-0.7-0.9-1.2-1.1C69.4,58,69,58,68.7,58c-0.3-1-0.8-1.9-1.5-2.7c0,0.5-0.1,1-0.2,1.5c-0.4-2.3-2.8-3.7-5-4.2
	c-2.3-0.5-4.7-0.5-6.7-1.5c0.1,1.4,0.3,2.8,0.4,4.2c-0.9-2-1.9-4-3.5-5.5c-1.2-1.1-2.8-1.8-4.3-2.4c-1.7-0.7-3.4-1.5-5-2.2
	c0.4,2.3,0.6,4.7,0.7,7.1c-0.3-2.8-0.7-5.7-2.5-7.8c-2.1-2.3-5.5-2.9-8.3-4.1c-2.7-1.2-4.9-3.1-7.2-4.9c-0.1,2.3,0,4.5,0.2,6.8
	c-0.3-1.9-0.7-3.7-1.1-5.6c-0.1-0.6-0.3-1.3-0.7-1.8c-0.3-0.4-0.8-0.6-1.2-0.8c-4.5-2.3-9.3-4.6-12.3-8.8c0.2,0.6,0.5,1.2,0.7,1.9
	C12.1,28.2,13.3,29.1,14.3,29.9L14.3,29.9z"/>
</svg>
